/* XPM */
static char *_52d1f06d9d04b00f1ea8fa0e8f4b8d6bxoPEpKKeyzcQwc6[] = {
/* columns rows colors chars-per-pixel */
"32 32 193 2 ",
"   c #0B0D2A",
".  c #1E0E27",
"X  c #120D29",
"o  c #190E28",
"O  c #0E112D",
"+  c #12132C",
"@  c #1A152B",
"#  c #1B1829",
"$  c #141632",
"%  c #171935",
"&  c #1B1E39",
"*  c #191C37",
"=  c #230E26",
"-  c #2B0F25",
";  c #310F24",
":  c #3B0F23",
">  c #201A28",
",  c #27182B",
"<  c #39172A",
"1  c #261731",
"2  c #2A1932",
"3  c #381D34",
"4  c #1E213C",
"5  c #2B2227",
"6  c #362628",
"7  c #24253B",
"8  c #3F2037",
"9  c #332C32",
"0  c #3A3338",
"q  c #5E111E",
"w  c #55101F",
"e  c #63111D",
"r  c #6B111C",
"t  c #74131B",
"y  c #7A121A",
"u  c #7D351D",
"i  c #400F22",
"p  c #441022",
"a  c #4B1021",
"s  c #531020",
"d  c #701924",
"f  c #5C2724",
"g  c #483325",
"h  c #563B24",
"j  c #47293C",
"k  c #56293C",
"l  c #5C2B3D",
"z  c #54273C",
"x  c #422A2E",
"c  c #692E35",
"v  c #5F4123",
"b  c #684722",
"n  c #634422",
"m  c #7D563D",
"M  c #262842",
"N  c #2A2C44",
"B  c #2E314A",
"V  c #32354B",
"C  c #353850",
"Z  c #393C53",
"A  c #423A40",
"S  c #703243",
"D  c #3F4158",
"F  c #3E4057",
"G  c #484A58",
"H  c #44465A",
"J  c #544850",
"K  c #644F54",
"L  c #4C4E64",
"P  c #4F5165",
"I  c #54566A",
"U  c #595B6E",
"Y  c #555768",
"T  c #5D5F72",
"R  c #755060",
"E  c #5F6174",
"W  c #626376",
"Q  c #696B7D",
"!  c #686A76",
"~  c #776E71",
"^  c #727375",
"/  c #7F7F7F",
"(  c #6A6669",
")  c #861319",
"_  c #8A1519",
"`  c #9B1416",
"'  c #921317",
"]  c #A51414",
"[  c #AD1B1B",
"{  c #A41A16",
"}  c #8B281A",
"|  c #9B3434",
" . c #8D2B31",
".. c #A52629",
"X. c #BA2727",
"o. c #B52222",
"O. c #A72F34",
"+. c #A13423",
"@. c #C63836",
"#. c #D33F3F",
"$. c #924E34",
"%. c #B65337",
"&. c #976E3E",
"*. c #BB683C",
"=. c #CE443F",
"-. c #8C3C49",
";. c #983B46",
":. c #AA3F47",
">. c #C13D40",
",. c #AC4650",
"<. c #B35148",
"1. c #8A6646",
"2. c #977642",
"3. c #8D7454",
"4. c #AD7155",
"5. c #836E6E",
"6. c #BC7171",
"7. c #A1676A",
"8. c #C94947",
"9. c #D44040",
"0. c #DA4646",
"q. c #CB5258",
"w. c #C75256",
"e. c #D4555A",
"r. c #DF5A5D",
"t. c #CE5644",
"y. c #E85353",
"u. c #E65856",
"i. c #F45F5F",
"p. c #CB7E4D",
"a. c #D07953",
"s. c #C5704D",
"d. c #EB655B",
"f. c #EE5F60",
"g. c #F96363",
"h. c #F56262",
"j. c #F26B65",
"k. c #AF8E5B",
"l. c #AB8165",
"z. c #C99A56",
"x. c #C0954C",
"c. c #CAA058",
"v. c #E79773",
"b. c #C3A474",
"n. c #DFB570",
"m. c #DAB16A",
"M. c #E4BB76",
"N. c #F5A67B",
"B. c #6D6F80",
"V. c #6E7081",
"C. c #727484",
"Z. c #777889",
"A. c #A47A80",
"S. c #7E808F",
"D. c #868686",
"F. c #8B8B8B",
"G. c #828492",
"H. c #8A8B97",
"J. c #8F919E",
"K. c #939393",
"L. c #AFA79F",
"P. c #9B9CA8",
"I. c #A3A4AE",
"U. c #A6A6A6",
"Y. c #ABACB6",
"T. c #AEAFB9",
"R. c #AFB0BA",
"E. c #BDBDBD",
"W. c #B5B5BA",
"Q. c #F6AF87",
"!. c #EB9EA0",
"~. c #FBA7A7",
"^. c #EAC586",
"/. c #F2CA86",
"(. c #E8C893",
"). c #BCBDC4",
"_. c #C2C2C2",
"`. c #C5C6CD",
"'. c #C8C9CD",
"]. c #CCCDD3",
"[. c #CFD0D5",
"{. c #D1D1D2",
"}. c #D6D6DB",
"|. c #DDDDDD",
" X c #E0D7C9",
".X c #DDDEE2",
"XX c #DFE0E3",
"oX c #E1E1E4",
"OX c #EAEAEB",
"+X c #EFEFF1",
"@X c #EFF0F2",
"#X c #F3F3F4",
"$X c #FFFFFF",
/* pixels */
"$X$X$X$X$X$X$X$X$X$X$X$X$X$X$X$X$X$X$X$X$X$X$X$X$X+XC.4 4 4 4 Z.",
"$X$X$X$X$X$X$X$X$X$X$X$X$X$X$X$X$X$X$X$X$X$X$X$X`.G.Z 4 E T 4 Q ",
"$X$X$X$X$X$X$X$X$X$X$X$X$X$X$X$X$X$X$X$X$X$X$X$XG.  O Z ).).V Q ",
"$X$X$X$X$X$X$X$X$X$X$X$X$X$X$X$X$X$X$X$X$X$X$X$XG.$ W Y.oX).V Q ",
"$X$X$X$X$X$X$X$XOXoXoXoXoXoXoX#X$X$X$X$X$X$X#XoXC.& I.$XOXI.B Q ",
"$X$X$X$X$X$X$XOXJ.U U U U U U W.$X$X$X$X$X$X).E B & I.oXG.H % Q ",
"#X{.`.`.`.`.`.R.H O # > > @   C.].OX$X$X$X$XP.$ N P ).}.L & Z H.",
"[.W D D D D D Z & # g h h 6   M I ).$X$X$X$XP.$ V.[.OX}.L H Y.XX",
"G.N 1 z l l l k 6 6 h b b g 5 # * C.Y.Y.Y.Y.Q + H.$X].J.C P }.$X",
"4 O k q.r.r.r.e.$.n b b b b v 6 O & M M M M *   H.@XZ.7 $ P }.$X",
"1 l ,.f.y.9.=.@.c g v b b b b f a 6 5 @ 2 S R Z.).+X! 4 U P.OX$X",
"j q.g.g.#.] ] ' : > h b b b b } { u h > z e.~.$X$X+X! C ).$X$X$X",
"< O.@.@.t.a.a.s.1.m <.<.<.<.<.8.=.%.&.3.l.v.Q.~.~.!.K C ).$X$X$X",
"; ) ] { s././.M.z.p.d.g.g.g.g.i.d.p.z.M././.N.j.f.e.l C ).$X$X$X",
"; ) ` } 4./.n.z.*.%.u.g.g.g.g.0.@.*.x.c.m./.Q.N.4.k 2 C ).$X$X$X",
"; ) } h 1.b.k.&.+.o.0.y.y.y.y.@.{ $.2.2.k.(.(.b.K O N W ].$X$X$X",
"; ) t , 9 A 0 x ) [ o.X.X.X.X.[ ` f 9 9 (  XL.J 7 % S.[.+X$X$X$X",
"= e e i : : . . t ] ] ] ] ] ] _ r ;     F P.B.+ V W _.$X$X$X$X$X",
"  o a ) ' ' p . t ] ] ] ] ] ] q . X     $ M 4   Z.oX#X$X$X$X$X$X",
"U 4 - q ) ] a X p t ` ] ] ] ] y p =     N W C.C.).$X$X$X$X$X$X$X",
").Z     w ] a     ; ) ] ] ] ] ] ' :     I }.#X#X$X$X$X$X$X$X$X$X",
"oXI.T % - s - @ l ;.>.O.e y ] ] ` y a . I .X$X$X$X$X$X$X$X$X$X$X",
"$X$XT.V $   X 2 ,.g.g.,.1 a ` ] ] ` y - I .X$X$X$X$X$X$X$X$X$X$X",
"$X$X.XY.T   p d 8.g.g.,.1 = p y ` e : o I .X$X$X$X$X$X$X$X$X$X$X",
"$X$X#XOXG.  e [ 9.u.e.-.1     q ` s = X P '.OXOX#X$X$X$X$X$X$X$X",
"$X$X|.U.U   e ] o...c 3 +     q ] _ e = C F.U.U.{.$X$X$X$X$X$X$X",
"$X$X{.F.G   a ) .. .< $ M N N c | |  .j G ^ / / _.$X$X$X$X$X$X$X",
"$X$X{.F.G   o < :.<.3 N ( ! ! ~ 5.5.5.~ ^ / l./ _.$X$X$X$X$X$X$X",
"$X$X{.F.G   8 S q.w.8 B ^ / / / / / / / / / / / _.$X$X$X$X$X$X$X",
"$X$X{.F.G   -.f.h.w.3 B ^ / / 5./ / / / / / / / _.$X$X$X$X$X$X$X",
"$X$XOX_.I.G.A.6.6.7.K Y / / / 5./ / S./ K.W.E.E.oX$X$X$X$X$X$X$X",
"$X$X$X$X$X$XE.D.D.D.D.D.D.D.D.D.D.D.D.D.U.OX$X$X$X$X$X$X$X$X$X$X"
};
