/* XPM */
static char *d1db895edc724e2af56231386748287aXxw2iUcRxtA3jBnE[] = {
/* columns rows colors chars-per-pixel */
"64 64 133 2 ",
"   c #2C6D39",
".  c #36663C",
"X  c #3C633E",
"o  c #326A3B",
"O  c #3A6A3E",
"+  c #267F37",
"@  c #2A7338",
"#  c #277D38",
"$  c #297938",
"%  c #33733C",
"&  c #3B723E",
"*  c #327C3C",
"=  c #405F3F",
"-  c #40603F",
";  c #3F6E40",
":  c #594F47",
">  c #5D4C49",
",  c #4E5644",
"<  c #445D41",
"1  c #4F5E44",
"2  c #4F5D45",
"3  c #4A5A43",
"4  c #525345",
"5  c #535345",
"6  c #555146",
"7  c #565146",
"8  c #565047",
"9  c #575047",
"0  c #545246",
"q  c #555246",
"w  c #545346",
"e  c #505544",
"r  c #515445",
"t  c #525445",
"y  c #525645",
"u  c #545446",
"i  c #555446",
"p  c #545346",
"a  c #585147",
"s  c #585347",
"d  c #585447",
"f  c #585447",
"g  c #505845",
"h  c #505A45",
"j  c #525A45",
"k  c #535A46",
"l  c #515B45",
"z  c #595148",
"x  c #5B5148",
"c  c #595348",
"v  c #5A5248",
"b  c #5A5148",
"n  c #64474B",
"m  c #64474B",
"M  c #60494A",
"N  c #61494A",
"B  c #62484A",
"V  c #62494A",
"C  c #63484B",
"Z  c #604A4A",
"A  c #614A4A",
"S  c #604B4A",
"D  c #64484B",
"F  c #62494A",
"G  c #406140",
"H  c #416140",
"J  c #426140",
"K  c #436140",
"L  c #446341",
"P  c #416440",
"I  c #426640",
"U  c #446441",
"Y  c #466542",
"T  c #476642",
"R  c #476742",
"E  c #456441",
"W  c #486042",
"Q  c #486542",
"!  c #4A6343",
"~  c #416940",
"^  c #426941",
"/  c #426A40",
"(  c #456841",
")  c #446941",
"_  c #426B41",
"`  c #258037",
"'  c #258137",
"]  c #268037",
"[  c #258237",
"{  c #248337",
"}  c #258337",
"|  c #238637",
" . c #238737",
".. c #248437",
"X. c #258437",
"o. c #248537",
"O. c #248637",
"+. c #248737",
"@. c #248437",
"#. c #238837",
"$. c #228937",
"%. c #238937",
"&. c #228A36",
"*. c #228B36",
"=. c #228A37",
"-. c #238A37",
";. c #248B37",
":. c #218C36",
">. c #218D36",
",. c #228C36",
"<. c #218E36",
"1. c #208F36",
"2. c #218F36",
"3. c #228E37",
"4. c #218C36",
"5. c #268238",
"6. c #268538",
"7. c #2C803A",
"8. c #2F803B",
"9. c #2C823A",
"0. c #288538",
"q. c #2A8539",
"w. c #2B8539",
"e. c #298639",
"r. c #298739",
"t. c #2A8639",
"y. c #2B8439",
"u. c #268838",
"i. c #258A38",
"p. c #268A38",
"a. c #268A38",
"s. c #209036",
"d. c #209036",
/* pixels */
"1.s.s.s.*.| ` $ @   o X < < .   @ @ + + + + $ @         @ @ + + + + @ O < 3 3 3 , q B > h Y & * p.s.s.s.1.*.` + @ @             ",
"s.s.s.s.1.1.*.` $     o . o o   @ + *.*.*.*...$ @         @ @ @ @ @ . < q > > > > B B c Y % 0.p.1.s.s.s.1.1.1.| + @             ",
"s.s.s.s.1.1.*...+ @ @ @ @ @ @   @ ` 1.s.1.s.*.` @ @ o . . . . . o   . < q > > B n n n a ~ $ *.1.s.s.s.s.1.1.*.| + @ @ @ @ @ @   ",
"1.s.s.s.*...` + + + + + + $ @   @ ` 1.s.s.s.1.| ` @ O < 3 3 3 < X o o X < , q B n n n c L % ` | 1.s.s.s.1.| ` + + + + + + + @ @ ",
"1.s.s.s.*.+ @ $ ` *.*.*.*.` $ @ @ ` 1.s.s.s.1.1.*.$ ~ u > > > r < o   o . X , > n n n > < o $ ` *.s.1.s.*.` $ @ + | *.*.*.| + @ ",
"1.1.1.*.` $   @ ` 1.s.s.s.*.+ @ $ ` *.*.1.1.1.1.*.* Y > n n n > 3 X o o   . 3 > B > > r J o $ ` *.1.1.*...+ @ @ + *.s.s.s.1.` $ ",
"1.*...` $ @   @ ` 1.s.s.s.1.| ` + + + ` *.1.1.| ` % W > n n n > q , < X o . 3 > > q , J o $ ` | 1.1.| ` + @ @ @ + *.s.s.s.1.*.` ",
"s.*.+ @ @     @ ` 1.s.s.s.1.1.*...+ @ $ ` 1.*.` @ . 3 > n n n B > > r < o . 3 > > , X o $ ..*.1.1.*.` $ @ @   @ + *.s.s.s.1.1.*.",
"s.*.+ @ @ @ @ $ ` *.1.1.s.s.s.s.*.+ @ $ ` 1.*.` @ . < q > B B n n n > 3 X X , > > < o $ ` *.s.s.s.*.` $ @ @ @ @ + | *.1.1.s.s.s.",
"s.*...+ + + + + + + ` *.1.s.s.s.1.| ` ` *.1.1.| ` @ O < , q B n n n > q 3 , q B a Y @ ` | 1.s.s.s.1.| ` + + + + + + ` | 1.s.s.s.",
"s.1.1.*.*.*.*...+ @ $ ..1.s.s.s.1.1.*.*.1.1.1.1.*.5.@ o - , > n n n B > > > > B a ~ 9.*.1.1.s.s.s.1.1.*.*.*.*.| + @ @ ` *.s.s.s.",
"s.s.s.s.s.s.s.*.+ @ $ ..1.s.s.s.s.s.s.s.s.s.s.s.s.*.` @ . < q > B B n n n B > c 1 & 0.s.s.s.s.s.s.s.s.s.s.s.s.*.` $ @ ` *.s.s.s.",
"s.s.s.s.s.s.s.*...+ ` *.1.s.s.s.s.s.s.s.s.s.s.s.s.1.| ` @ O < , q B n n n > h Q & * p.s.s.s.s.s.s.s.s.s.s.s.s.1.| ` ` | 1.s.s.s.",
"s.s.s.s.s.s.s.1.1.*.*.1.1.s.s.s.s.s.s.s.s.s.s.s.s.1.1.*.5.@ . - , > n n n c Y % 0.p.1.s.s.s.s.s.s.s.s.s.s.s.s.1.1.*.*.1.1.s.s.s.",
"s.s.s.s.s.s.s.s.s.s.s.s.s.s.s.s.s.s.s.1.1.*.1.1.1.s.s.s.#.$ o X , > B B > h & 0.s.s.s.s.s.s.s.s.s.s.s.s.s.s.s.s.s.s.s.s.s.s.s.s.",
"s.s.s.s.s.s.s.s.s.s.s.s.s.s.s.s.s.s.s.1.| ` ` *.1.s.s.s.0.% J , q B > q , I % p.s.s.s.s.s.s.s.s.s.s.s.s.s.s.s.s.s.s.s.s.s.s.s.s.",
"s.s.s.s.s.s.s.s.s.s.s.s.s.s.s.s.s.s.s.*.` @ $ ` 1.s.s.s.9.; r > > B > , X o $ *.s.s.s.s.s.s.s.s.s.s.s.s.s.s.s.s.s.s.s.s.s.s.s.s.",
"s.s.s.s.s.s.s.1.1.*.1.1.s.s.s.s.s.s.s.*.+ @ $ ` *.*.*.*.$ ~ u > B B : 3 o @ + | 1.1.1.1.1.1.1.1.1.s.s.s.s.1.s.1.1.1.1.1.1.s.s.s.",
"1.s.s.s.s.s.s.1.| ` ..*.1.s.s.s.s.s.s.1...` + + + + + + @ O < , : B : 3 o @ @ + ` *.1.1.*.` ` *.1.s.s.s.s.s.s.1.*.` ` | 1.s.s.s.",
"1.s.s.s.s.s.s.*.+ @ $ ..1.s.s.s.s.s.s.1.1.*...+ @ @ @ @ @ o . < , > : 3 o   @ @ $ ` 1.*.` $ $ ` *.s.s.s.s.s.s.1.` $ $ ` *.s.s.s.",
"1.s.s.s.1.1.1.` $   @ + *.1.1.s.s.s.s.1.1.1...+ @ @ @ @ @     . 3 q 4 < o       @ + | | + @ @ + *.s.s.s.1.1.1.| + @ @ $ ..1.1.1.",
"1.s.s.s.1.| ` $ @   @ $ + ..*.1.s.s.s.1.| ` + + + + + + $ @   o X 3 < X o       @ @ + + @ @ @ + *.s.s.s.1.*.` + @ @ @ @ + ` | 1.",
"1.s.s.s.*.+ @ @ @     @ @ $ ..1.s.s.s.*.` @ $ ` | *.*.*.` $ @   o . . o           @ @ @ @   @ + *.s.s.s.1.` $ @ @     @ @ $ ` *.",
"*.*.*.*.` $               @ + *.*.*.*...+ @ $ ` 1.s.s.s.*.+ @ @                     @ @ @ @ @ + | *.*.*.| + @             @ $ ..",
"` ` ` ` $ @               @ $ + ` ` ` + + + ` *.1.s.s.s.1...+ $ @               @ @ $ + + + + + + ` ` ` + @ @             @ @ + ",
"@ @ @ @ @ @                 @ @ @ @ @ $ ` | *.1.1.1.s.s.1.1.*.` $ @             @ $ ..*.*.*...+ $ @ @ @ @ @                 @ @ ",
"@ @                                   @ + *.1.1.s.s.s.s.1.1.1.| + @ @ @ @ @     @ + *.s.s.s.*.` @ @                             ",
"+ $ @                                 @ $ + ..*.1.s.s.s.1.| ` + + + + + + $ @   @ + *.s.s.s.1.| ` $ @ @                         ",
"*.` $                                   @ @ $ ..1.s.s.s.*.` $ $ + | *.*.*.` $ @ @ + *.s.s.s.1.1.*...$ @                         ",
"1.` $           o o o                     @ $ ` 1.1.1.1...$ @ @ ` *.s.s.s.*.` @ @ + *.1.1.1.1.1.1.| + @                       o ",
"` $ @         o X < X .               @ @ $ ` | 1.1.| ` + @   @ ` *.s.s.s.1.| + + + ` ` *.1.1.*.` + @ @                     X = ",
"@ @ @         . < q , X o             @ + ..*.1.1.*.` $ @ @   @ ` *.s.s.s.1.1.*...+ $ $ ` 1.*.` $ @ @                     o < , ",
"@     o o o o X r B q 3 . o         @ $ ` 1.s.s.s.*.+ @ @ @ @ @ ` *.1.1.1.s.s.s.*.` @ @ ` *.*.` @ @               o o     o < q ",
"+ @ O < < < < , q B > 4 3 X .   @ @ $ ` | 1.s.s.s.1...+ + + + + + + ` *.1.s.s.s.1.| + ` | 1.1.| ` $ @ @       o X = < X o o X < ",
"*.* I q q q q > > B B > : , X o @ + ..*.1.1.s.s.s.1.1.*.*.*.*...+ $ $ ` 1.s.s.s.1.1.*.*.1.1.1.1.*...$ @       o < , r < .   o . ",
"s.* ( c > B D n n n B B > r J   $ ` 1.s.s.s.s.s.s.s.s.s.s.s.s.*.+ @ @ ` 1.s.s.s.s.s.s.s.s.s.s.s.s.*.` @     o X 3 > > , X o     ",
"s.0.% ( 1 d B n n n > q , J o $ ` | 1.s.s.s.s.s.s.s.s.s.s.s.s.1...+ ` | 1.s.s.s.s.s.s.s.s.s.s.s.s.1.| ` @ o X 3 q > > q 3 J . @ ",
"s.#.0.9.& 1 B n n n > 3 X o $ ..*.1.1.s.s.s.s.s.s.s.s.s.s.s.s.1.1.*.*.1.1.s.s.s.s.s.s.s.s.s.s.s.s.s.1.*.$ O 2 : > B B > > h O $ ",
"s.s.s.s.* Q > B B > 4 < o @ ` 1.s.s.s.s.s.s.s.s.s.s.s.s.s.s.s.s.s.s.s.s.s.s.s.s.s.s.s.1.1.1.1.1.1.s.s.s.0._ d n n n B B B u ~ 9.",
"1.s.s.s.* Q > > q , < X o @ ` 1.s.s.s.s.s.s.s.s.s.s.s.s.s.s.s.s.s.s.s.s.s.s.s.s.s.s.s.1.*.` ..*.1.s.s.s.0._ d n n m B : r < % 0.",
"1.s.s.s.* Q S : 3 X . o   @ ` 1.s.s.s.s.s.s.s.s.s.s.s.s.s.s.s.s.s.s.s.s.s.s.s.s.s.s.s.*.` $ $ ` 1.s.s.s.0._ d n n n > r < . $ ..",
"*.1.#.p.% W S q < o       @ + *.1.1.s.1.1.1.1.1.s.s.s.s.s.s.s.1.1.1.1.1.s.s.s.s.s.s.s.*.` @ @ + *.1.#.p.* ( c B B B : 3 . @ + | ",
"` $ * & Y k B q < o       @ $ + ..*.1.1.*.` ..*.1.s.s.s.s.s.s.1.*.` ..*.1.s.s.s.s.s.s.1...+ + + ` $ * & ~ l > B : r 3 X o @ @ + ",
"@ o I h d > B q < o         @ @ + ..1.*.` $ + ..1.s.s.s.s.s.s.*.` $ $ ..1.s.s.s.s.s.s.1.1.*...+ $ % O 1 u c B > r < X o     @ @ ",
"@ X 3 > > > > 4 < .             @ + *...$ @ @ ` 1.s.s.s.1.1.1.| + @ @ + *.1.1.s.s.s.s.1.1.1.*.+ @ o < q > > > : 3 .             ",
"+ % O Y W 3 3 3 3 < X .         @ $ ` + @   @ ` 1.s.s.s.1.*.` + @ @ @ $ + ..*.1.s.s.s.1.*...` + + $ % ~ W 3 3 3 X o             ",
"| 0.9.* % o X < 3 q 3 X o         @ @ @ @   @ ` 1.s.s.s.*.` $ @ @     @ @ $ ..1.s.s.s.*.` $ $ + ..0.y.$ * % O X o               ",
"1.s.s.s.| + @ X 3 > 4 < o             @ @ @ @ ` *.1.1.1.| + @             @ + *.1.1.1.*.+ @ @ ` *.s.s.s.*.` @                   ",
"1.s.s.s.*...+ % X 3 < X         @ @ $ $ $ $ + + ` ` ` ` + @ @             @ $ + ` ` ` ` + + + ..1.s.s.s.1.| + $ @ @             ",
"s.s.s.s.1.*.| $ % X . o         @ + ..| | | ` + $ @ @ @ @ @                 @ @ @ @ @ $ + ..*.*.1.s.s.s.1.*.*.` $ @             ",
"s.s.s.s.1.1.1...+ @             @ ` 1.s.s.s.*.+ @                         o o o       @ + *.1.1.s.s.s.s.s.1.1.*.+ @             ",
"s.s.s.s.1.*.` ` + + $ $ $ $ @   @ ` 1.s.s.s.*...+ $ @   o X - X .   o X X < < < X .   @ $ + ..*.1.s.s.s.1.*...` + + $ $ $ $ @ @ ",
"1.s.s.s.*.` $ $ ` ..| | | ` $   @ ` 1.s.s.s.1.*.*.` $ @ . < r , X o . < , q q q , - o   @ @ $ ` 1.s.s.s.1.` $ $ + ..| | | ` $ @ ",
"1.1.1.1...$   @ ` 1.s.s.s.*.+ @ @ ` *.1.1.s.s.1.1...$   X , > > 3 . X 3 > n n n > 3 .       @ ` *.s.1.1.*.+ @ @ + *.s.s.s.*.` @ ",
"1.1.*.` + @   @ ` 1.s.s.s.*...+ + + ` ..*.1.1.*...$ o X 3 q B > 4 3 3 q > n n n > 4 3 X o @ + ..1.1.*...+ $ @ @ + *.s.s.s.1.| + ",
"1.*.` $ @ @   @ ` 1.s.s.s.1.*.| ` + $ + ..1.*.` $ o J , : > B B > q : > B n n n B > q 3 O $ *.*.1.1.` $ @ @   @ + *.s.s.s.1.*.*.",
"s.| + @       @ ` 1.1.1.s.s.s.s.*.+ @ @ ` 1.*.+ @ . 3 > B B n n n n n n n n n n B B B u ; 0.s.s.s.*.` @       @ + *.1.1.s.s.s.s.",
"s.*.` + $ $ $ + + ` | *.1.s.s.s.*...+ ` | 1.*...+ % X 3 4 > B n n n n n n n n n > u 1 ~ % p.s.s.s.1...+ $ $ $ + + ` ..*.1.s.s.s.",
"s.1.*.| | | | ` + $ + ..1.s.s.s.1.*.| *.1.1.1.*.| $ % X < 4 > n n n n n n n n n c W & * 0.1.s.s.s.1.*.*.| | | ..+ $ $ ` *.s.s.s.",
"s.s.s.s.s.s.s.| + @ @ ` 1.s.s.s.s.s.s.s.s.s.s.s.s.*.+ @ . 3 > n n n n n n B B B u ; 0.s.s.s.s.s.s.s.s.1.s.s.s.*.` @ @ + *.s.s.s.",
"s.s.s.s.s.s.s.*.` + ` | 1.s.s.s.s.s.s.s.s.s.s.s.s.*...+ o 3 > n n n n n n > u 1 ~ % p.s.s.s.s.s.s.s.s.s.s.s.s.1...+ + ..1.s.s.s.",
"s.s.s.s.s.s.s.1.*.| *.1.1.s.s.s.s.s.s.s.s.s.s.s.s.1.*.| * Y > n n n n n n c W & 8.0.3.s.s.s.s.s.s.s.s.s.s.s.s.1.*.*.| *.1.s.s.s.",
"s.s.s.s.s.s.s.s.s.s.s.s.s.s.s.s.s.s.s.s.1.1.1.1.s.s.s.s.9.( c B B n n B B u ; 0.s.s.s.s.s.s.s.s.s.s.s.s.s.s.s.s.s.s.s.s.s.s.s.s.",
"s.s.s.s.s.s.s.s.s.s.s.s.s.s.s.s.s.s.s.1.*...| *.1.s.s.s.y.& 3 4 > B B : 4 L % 0.s.s.s.s.s.s.s.s.s.s.s.s.s.s.s.s.s.s.s.s.s.s.s.s."
};
