/* XPM */
static char *_44067befed741cc9701f9c3b3ac1370gJ7TMT0oircwhgL3[] = {
/* columns rows colors chars-per-pixel */
"32 32 203 2 ",
"   c white",
".  c #D5D3CF",
"X  c #B4A48B",
"o  c #AF9771",
"O  c #AE9772",
"+  c #C8C4C0",
"@  c #EAE9E7",
"#  c #9F855C",
"$  c #BE9557",
"%  c #C69B59",
"&  c #BF9657",
"*  c #A0865E",
"=  c #F0F0EE",
"-  c #A99F8C",
";  c #B78F55",
":  c #B68F54",
">  c #A79C88",
",  c #A3947A",
"<  c #C19757",
"1  c #A7987F",
"2  c #A6977F",
"3  c #A69880",
"4  c #B9B0A2",
"5  c #BD9356",
"6  c #BD9556",
"7  c #B5AB9D",
"8  c #F3F2F1",
"9  c #AF8E5A",
"0  c #B18F5D",
"q  c #705C3D",
"w  c #645236",
"e  c #826A46",
"r  c #AB8B59",
"t  c #B5915A",
"y  c #C49A5B",
"u  c #C39A5B",
"i  c #BC965C",
"p  c #AD8B58",
"a  c #645135",
"s  c #695639",
"d  c #978871",
"f  c #B2905D",
"g  c #B38D55",
"h  c #FBFAF9",
"j  c #9C835E",
"k  c #6C645B",
"l  c #62523D",
"z  c #896F48",
"x  c #93764B",
"c  c #826A45",
"v  c #645138",
"b  c #4E4331",
"n  c #A58452",
"m  c #BB955C",
"M  c #594B37",
"N  c #554834",
"B  c #715C3F",
"V  c #8A704D",
"C  c #96784B",
"Z  c #746244",
"A  c #6A6051",
"S  c #C49A5A",
"D  c #A08457",
"F  c #A79982",
"G  c #C49A59",
"H  c #B5905B",
"J  c #A98A59",
"K  c #867254",
"L  c #897558",
"P  c #97805D",
"I  c #A0855B",
"U  c #C0975A",
"Y  c #C69B5A",
"T  c #AA8D60",
"R  c #9C835F",
"E  c #887456",
"W  c #7E6C4F",
"Q  c #957B54",
"!  c #B69159",
"~  c #AB9D88",
"^  c #F4F4F2",
"/  c #B58F55",
"(  c #C69A5A",
")  c #A68F6C",
"_  c #CAC9C7",
"`  c gray8",
"'  c gray13",
"]  c #8E8B87",
"[  c #AB8C5F",
"{  c #B99359",
"}  c #AD8D5E",
"|  c #938878",
" . c #424142",
".. c gray6",
"X. c #A4A3A2",
"o. c #A1937E",
"O. c #C49B5C",
"+. c #B58F53",
"@. c #F6F5F4",
"#. c #A78F6A",
"$. c #C59B5B",
"%. c #A08050",
"&. c #997A4B",
"*. c #9B7D4E",
"=. c #AE8F5F",
"-. c #C39A5D",
";. c #C69B5B",
":. c #B3915F",
">. c #A68554",
",. c #A38250",
"<. c #A48352",
"1. c #C0975B",
"2. c #98815C",
"3. c #B7B1A8",
"4. c #C39858",
"5. c #DCD8D2",
"6. c #A5885E",
"7. c #9C7F55",
"8. c #B3AB9F",
"9. c #B7935C",
"0. c #B9955F",
"q. c #C59959",
"w. c #D1CCC3",
"e. c #A58B62",
"r. c #C59A5B",
"t. c #A1845C",
"y. c #A08760",
"u. c #B68F53",
"i. c #B28F59",
"p. c #A0835A",
"a. c #BC945A",
"s. c #AA8A58",
"d. c #F8F7F7",
"f. c #ACA393",
"g. c #C59A59",
"h. c #BD9558",
"j. c #9B8056",
"k. c #A98959",
"l. c #A9895A",
"z. c #A5875A",
"x. c #9A7E52",
"c. c #856E4B",
"v. c #7B674A",
"b. c #927B55",
"n. c #A58555",
"m. c #C59B5A",
"M. c #A2865D",
"N. c #C3995C",
"B. c #C49B59",
"V. c #C1B7A7",
"C. c #AF9A7B",
"Z. c #C3995A",
"A. c #A28456",
"S. c #AB8A58",
"D. c #AC8956",
"F. c #B48E56",
"G. c #BC955A",
"H. c #A7895F",
"J. c #A69275",
"K. c #AE946E",
"L. c #C29A5C",
"P. c #A08863",
"I. c #AF9671",
"U. c #A38C67",
"Y. c #AD9D84",
"T. c #AD9D85",
"R. c #ECEBE9",
"E. c #B99255",
"W. c #BA9155",
"Q. c #EEEDEA",
"!. c #A89579",
"~. c #A19074",
"^. c #A59274",
"/. c #C09757",
"(. c #C29858",
"). c #9D8A6B",
"_. c #C0B7A9",
"`. c #A08254",
"'. c #C39859",
"]. c #C39958",
"[. c #9F8152",
"{. c #BAB1A3",
"}. c #D4D0C8",
"|. c #9D8C71",
" X c #A08152",
".X c #B48D52",
"XX c #C19857",
"oX c #C69A59",
"OX c #C69B58",
"+X c #C79A59",
"@X c #C19858",
"#X c #B48D53",
"$X c #A08153",
"%X c #9D8B71",
"&X c #DEDCD8",
"*X c #CCC5BA",
"=X c #D4C9BA",
"-X c #CCBFAC",
";X c #BDAF99",
":X c #B7A791",
">X c #BDAE99",
",X c #CCBFAB",
"<X c #D3C9BA",
/* pixels */
"                                                                ",
"                                                                ",
"                          . X o O X +                           ",
"                      @ # $ % % % % & * =                       ",
"                    - ; % % % % % % % % : >                     ",
"                  , & % % % % % % % % % % < 1                   ",
"                2 < % % % % % % % % % % % % < 3                 ",
"              4 5 % % % % % % % % % % % % % % 6 7               ",
"            8 9 0 q w e r t y % u i p e a s d f g h             ",
"            j k l z x c v b n % m M N B V C Z A S D             ",
"          F G H % J K L P I U % Y T R E W Q y ! G G ~           ",
"        ^ / % ( ) _ ` ' ] [ { % Y } |  ...X.o.O.% % +.@.        ",
"        #.% % % $.%.&.*.=.-.% % % ;.:.>.,.<.1.Y % % % 2.        ",
"      3.$ % % % % % % % % % % % % % % % % % % % % % % 4.5.      ",
"      6.% % % % % % % % % % % % % % % % % % % ;.% % % % 7.      ",
"    8.< % % % % % % % % % % % % % % % % % Y 9.0.% % % % q.w.    ",
"    e.% % % % % % % % % % % % % % % % % r.( t.Y % % % % % y.    ",
"    u.% % % % % % % % % % % % % % % % i.p.a.s.% % % % % % : d.  ",
"  f.g.% % % % % % % h.j.k.l.z.x.c.v.b.n.m.M.N.% % % % % % B.V.  ",
"  C.% % % % % % % % Z.A.S.s.D.F.G.r.% % Y H.% % % % % % % % J.  ",
"  K.% % % % % % % % % % % % % % % % % % % L.% % % % % % % Y P.  ",
"  I.% % % % % % % % % % % % % % % % % % % % % % % % % % % % U.  ",
"  Y.% % % % % % % % % % % % % % % % % % % % % % % % % % % % T.  ",
"  R.E.% % % % % % % % % % % % % % % % % % % % % % % % % % W.Q.  ",
"    !.g.% % % % % % % % % % % % % % % % % % % % % % % % Y ~.    ",
"      ^./.% % % % % % % % % % % % % % % % % % % % % % (.).      ",
"        _.`.'.% % % % % % % % % % % % % % % % % % ].[.{.        ",
"            }.|. X.XXXoX% % % % % OX+X( oX@X#X$X%X}.            ",
"                    &X*X=X-X;X:X:X>X,X<X*X&X                    ",
"                                                                ",
"                                                                ",
"                                                                "
};
